<mxfile host="app.diagrams.net" modified="2022-03-11T02:40:16.678Z" agent="5.0 (Windows NT 10.0; Win64; x64) AppleWebKit/537.36 (KHTML, like Gecko) Chrome/99.0.4844.51 Safari/537.36" etag="eYZmT4FmZqY900oQutu2" version="17.1.1" type="github">
  <diagram id="mFmB9DYSO76tBp0YpH25" name="第 1 页">
    <mxGraphModel dx="1038" dy="585" grid="1" gridSize="10" guides="1" tooltips="1" connect="1" arrows="1" fold="1" page="1" pageScale="1" pageWidth="827" pageHeight="1169" math="0" shadow="0">
      <root>
        <mxCell id="0" />
        <mxCell id="1" parent="0" />
        <mxCell id="VNIoy6-uIg5sBibUOYpV-1" value="金融机构" style="rounded=1;whiteSpace=wrap;html=1;" vertex="1" parent="1">
          <mxGeometry x="400" y="100" width="120" height="60" as="geometry" />
        </mxCell>
        <mxCell id="VNIoy6-uIg5sBibUOYpV-2" value="核心企业" style="rounded=1;whiteSpace=wrap;html=1;" vertex="1" parent="1">
          <mxGeometry x="40" y="280" width="120" height="60" as="geometry" />
        </mxCell>
        <mxCell id="VNIoy6-uIg5sBibUOYpV-3" value="下游经销商" style="rounded=1;whiteSpace=wrap;html=1;" vertex="1" parent="1">
          <mxGeometry x="400" y="280" width="120" height="60" as="geometry" />
        </mxCell>
        <mxCell id="VNIoy6-uIg5sBibUOYpV-4" value="第三方仓库" style="rounded=1;whiteSpace=wrap;html=1;" vertex="1" parent="1">
          <mxGeometry x="40" y="100" width="120" height="60" as="geometry" />
        </mxCell>
        <mxCell id="VNIoy6-uIg5sBibUOYpV-5" value="" style="endArrow=classic;html=1;rounded=0;exitX=1;exitY=0.75;exitDx=0;exitDy=0;entryX=0;entryY=0.75;entryDx=0;entryDy=0;" edge="1" parent="1" source="VNIoy6-uIg5sBibUOYpV-2" target="VNIoy6-uIg5sBibUOYpV-3">
          <mxGeometry relative="1" as="geometry">
            <mxPoint x="350" y="220" as="sourcePoint" />
            <mxPoint x="490" y="210" as="targetPoint" />
          </mxGeometry>
        </mxCell>
        <mxCell id="VNIoy6-uIg5sBibUOYpV-6" value="①销售产品" style="edgeLabel;resizable=0;html=1;align=center;verticalAlign=middle;" connectable="0" vertex="1" parent="VNIoy6-uIg5sBibUOYpV-5">
          <mxGeometry relative="1" as="geometry" />
        </mxCell>
        <mxCell id="VNIoy6-uIg5sBibUOYpV-7" value="" style="endArrow=classic;html=1;rounded=0;entryX=1;entryY=0.25;entryDx=0;entryDy=0;exitX=0;exitY=0.25;exitDx=0;exitDy=0;" edge="1" parent="1" source="VNIoy6-uIg5sBibUOYpV-3" target="VNIoy6-uIg5sBibUOYpV-2">
          <mxGeometry relative="1" as="geometry">
            <mxPoint x="340" y="270" as="sourcePoint" />
            <mxPoint x="290" y="290" as="targetPoint" />
          </mxGeometry>
        </mxCell>
        <mxCell id="VNIoy6-uIg5sBibUOYpV-8" value="②签订购销合同" style="edgeLabel;resizable=0;html=1;align=center;verticalAlign=middle;" connectable="0" vertex="1" parent="VNIoy6-uIg5sBibUOYpV-7">
          <mxGeometry relative="1" as="geometry" />
        </mxCell>
        <mxCell id="VNIoy6-uIg5sBibUOYpV-9" value="" style="endArrow=classic;html=1;rounded=0;exitX=0.75;exitY=0;exitDx=0;exitDy=0;entryX=0.75;entryY=1;entryDx=0;entryDy=0;" edge="1" parent="1" source="VNIoy6-uIg5sBibUOYpV-3" target="VNIoy6-uIg5sBibUOYpV-1">
          <mxGeometry relative="1" as="geometry">
            <mxPoint x="60" y="250" as="sourcePoint" />
            <mxPoint x="160" y="250" as="targetPoint" />
          </mxGeometry>
        </mxCell>
        <mxCell id="VNIoy6-uIg5sBibUOYpV-10" value="③申请融资" style="edgeLabel;resizable=0;html=1;align=center;verticalAlign=middle;" connectable="0" vertex="1" parent="VNIoy6-uIg5sBibUOYpV-9">
          <mxGeometry relative="1" as="geometry">
            <mxPoint y="-21" as="offset" />
          </mxGeometry>
        </mxCell>
        <mxCell id="VNIoy6-uIg5sBibUOYpV-11" value="" style="endArrow=classic;html=1;rounded=0;exitX=0.5;exitY=1;exitDx=0;exitDy=0;entryX=0.5;entryY=0;entryDx=0;entryDy=0;" edge="1" parent="1" source="VNIoy6-uIg5sBibUOYpV-1" target="VNIoy6-uIg5sBibUOYpV-3">
          <mxGeometry relative="1" as="geometry">
            <mxPoint x="240" y="190" as="sourcePoint" />
            <mxPoint x="340" y="190" as="targetPoint" />
          </mxGeometry>
        </mxCell>
        <mxCell id="VNIoy6-uIg5sBibUOYpV-12" value="④开设保证金专户" style="edgeLabel;resizable=0;html=1;align=center;verticalAlign=middle;" connectable="0" vertex="1" parent="VNIoy6-uIg5sBibUOYpV-11">
          <mxGeometry relative="1" as="geometry">
            <mxPoint as="offset" />
          </mxGeometry>
        </mxCell>
        <mxCell id="VNIoy6-uIg5sBibUOYpV-13" value="" style="endArrow=classic;html=1;rounded=0;exitX=0;exitY=0.25;exitDx=0;exitDy=0;entryX=1;entryY=0.25;entryDx=0;entryDy=0;" edge="1" parent="1" source="VNIoy6-uIg5sBibUOYpV-1" target="VNIoy6-uIg5sBibUOYpV-4">
          <mxGeometry relative="1" as="geometry">
            <mxPoint x="370" y="110" as="sourcePoint" />
            <mxPoint x="170" y="120" as="targetPoint" />
          </mxGeometry>
        </mxCell>
        <mxCell id="VNIoy6-uIg5sBibUOYpV-14" value="⑤委托监管" style="edgeLabel;resizable=0;html=1;align=center;verticalAlign=middle;" connectable="0" vertex="1" parent="VNIoy6-uIg5sBibUOYpV-13">
          <mxGeometry relative="1" as="geometry" />
        </mxCell>
        <mxCell id="VNIoy6-uIg5sBibUOYpV-15" value="" style="endArrow=classic;html=1;rounded=0;exitX=0.25;exitY=0;exitDx=0;exitDy=0;entryX=0.25;entryY=1;entryDx=0;entryDy=0;" edge="1" parent="1" source="VNIoy6-uIg5sBibUOYpV-3" target="VNIoy6-uIg5sBibUOYpV-1">
          <mxGeometry relative="1" as="geometry">
            <mxPoint x="420" y="260" as="sourcePoint" />
            <mxPoint x="520" y="260" as="targetPoint" />
          </mxGeometry>
        </mxCell>
        <mxCell id="VNIoy6-uIg5sBibUOYpV-16" value="⑦支付部分保证金" style="edgeLabel;resizable=0;html=1;align=center;verticalAlign=middle;" connectable="0" vertex="1" parent="VNIoy6-uIg5sBibUOYpV-15">
          <mxGeometry relative="1" as="geometry">
            <mxPoint y="27" as="offset" />
          </mxGeometry>
        </mxCell>
        <mxCell id="VNIoy6-uIg5sBibUOYpV-19" value="" style="endArrow=classic;html=1;rounded=0;entryX=0.25;entryY=1;entryDx=0;entryDy=0;exitX=0.25;exitY=0;exitDx=0;exitDy=0;" edge="1" parent="1" source="VNIoy6-uIg5sBibUOYpV-2" target="VNIoy6-uIg5sBibUOYpV-4">
          <mxGeometry relative="1" as="geometry">
            <mxPoint x="190" y="200" as="sourcePoint" />
            <mxPoint x="310" y="200" as="targetPoint" />
          </mxGeometry>
        </mxCell>
        <mxCell id="VNIoy6-uIg5sBibUOYpV-20" value="⑥存入产品" style="edgeLabel;resizable=0;html=1;align=center;verticalAlign=middle;" connectable="0" vertex="1" parent="VNIoy6-uIg5sBibUOYpV-19">
          <mxGeometry relative="1" as="geometry" />
        </mxCell>
        <mxCell id="VNIoy6-uIg5sBibUOYpV-21" value="" style="endArrow=classic;html=1;rounded=0;exitX=0.75;exitY=1;exitDx=0;exitDy=0;entryX=0;entryY=0;entryDx=0;entryDy=0;" edge="1" parent="1" source="VNIoy6-uIg5sBibUOYpV-4" target="VNIoy6-uIg5sBibUOYpV-3">
          <mxGeometry relative="1" as="geometry">
            <mxPoint x="190" y="180" as="sourcePoint" />
            <mxPoint x="290" y="180" as="targetPoint" />
          </mxGeometry>
        </mxCell>
        <mxCell id="VNIoy6-uIg5sBibUOYpV-22" value="⑨根据保证金金额发货" style="edgeLabel;resizable=0;html=1;align=center;verticalAlign=middle;" connectable="0" vertex="1" parent="VNIoy6-uIg5sBibUOYpV-21">
          <mxGeometry relative="1" as="geometry">
            <mxPoint x="-61" y="-30" as="offset" />
          </mxGeometry>
        </mxCell>
        <mxCell id="VNIoy6-uIg5sBibUOYpV-23" value="" style="endArrow=classic;html=1;rounded=0;exitX=0;exitY=0.75;exitDx=0;exitDy=0;entryX=1;entryY=0.75;entryDx=0;entryDy=0;" edge="1" parent="1" source="VNIoy6-uIg5sBibUOYpV-1" target="VNIoy6-uIg5sBibUOYpV-4">
          <mxGeometry relative="1" as="geometry">
            <mxPoint x="210" y="140" as="sourcePoint" />
            <mxPoint x="350" y="180" as="targetPoint" />
          </mxGeometry>
        </mxCell>
        <mxCell id="VNIoy6-uIg5sBibUOYpV-24" value="⑧通知发货" style="edgeLabel;resizable=0;html=1;align=center;verticalAlign=middle;" connectable="0" vertex="1" parent="VNIoy6-uIg5sBibUOYpV-23">
          <mxGeometry relative="1" as="geometry" />
        </mxCell>
        <mxCell id="VNIoy6-uIg5sBibUOYpV-25" value="" style="endArrow=classic;html=1;rounded=0;exitX=0.75;exitY=0;exitDx=0;exitDy=0;entryX=0;entryY=1;entryDx=0;entryDy=0;" edge="1" parent="1" source="VNIoy6-uIg5sBibUOYpV-2" target="VNIoy6-uIg5sBibUOYpV-1">
          <mxGeometry relative="1" as="geometry">
            <mxPoint x="170" y="380" as="sourcePoint" />
            <mxPoint x="270" y="380" as="targetPoint" />
          </mxGeometry>
        </mxCell>
        <mxCell id="VNIoy6-uIg5sBibUOYpV-26" value="⑩保证金不足时到期回购" style="edgeLabel;resizable=0;html=1;align=center;verticalAlign=middle;" connectable="0" vertex="1" parent="VNIoy6-uIg5sBibUOYpV-25">
          <mxGeometry relative="1" as="geometry">
            <mxPoint x="-50" y="27" as="offset" />
          </mxGeometry>
        </mxCell>
      </root>
    </mxGraphModel>
  </diagram>
</mxfile>
